<svg xmlns="http://www.w3.org/2000/svg"  viewBox="0 0 64 64" width="256px" height="256px"><path d="M 19.96875 2 A 1.0001 1.0001 0 0 0 19.5625 2.1035156 C 17.229194 3.2569351 15.583515 4.710526 14.617188 6.4804688 C 13.800467 7.9763849 13.579538 9.6884702 13.650391 11.5 C 12.346381 11.651604 11.241627 11.993152 10.509766 12.416016 C 9.5894365 12.947774 9.0683594 13.554688 9.0683594 13.554688 A 1.0001 1.0001 0 0 0 9.4179688 15.105469 C 9.4179688 15.105469 12.186259 16.34009 14.859375 20.484375 C 15.048527 20.777676 15.243175 21.048924 15.4375 21.318359 C 13.624356 21.277574 12.156338 21.091494 10.960938 20.619141 C 9.3409572 19.979018 8.100107 18.855464 6.8867188 16.537109 A 1.0001 1.0001 0 0 0 5.9882812 16 A 1.0001 1.0001 0 0 0 5.0058594 17.105469 C 6.4830115 30.912277 20.335159 30.643161 23.410156 32.34375 C 24.724818 33.922649 26.374403 34.818642 26.613281 37.904297 C 26.627014 38.082186 26.622725 38.194323 26.632812 38.359375 C 25.343514 37.77243 24.184032 36.894621 23.175781 35.992188 C 23.304455 35.849241 23.431056 35.706561 23.572266 35.564453 A 1.0001 1.0001 0 0 0 22.814453 33.859375 A 1.0001 1.0001 0 0 0 22.523438 33.917969 C 22.523438 33.917969 22.099471 34.078303 21.503906 34.365234 C 20.454893 33.256902 19.694512 32.355959 19.451172 32.416016 C 19.256172 32.687016 19.689875 33.561734 20.046875 34.177734 C 20.186024 34.417361 20.351567 34.664201 20.503906 34.908203 C 19.963942 35.220502 19.390151 35.580959 18.804688 36.052734 C 17.00245 37.505002 15.193573 39.927001 15.787109 43.121094 C 15.923787 43.856189 16.251045 44.484858 16.693359 45.019531 C 16.14558 48.909366 18.618918 50.905136 19.910156 51.871094 C 21.502156 53.064094 23.837344 53.37425 24.902344 53.28125 C 25.096583 53.264025 25.291622 53.217345 25.486328 53.171875 C 25.879295 55.589669 26.312395 57.790007 26.789062 59.158203 C 26.970819 57.985792 26.969141 55.353799 26.902344 52.503906 C 27.212705 52.241798 27.476469 51.913445 27.640625 51.546875 C 27.883625 51.018875 27.932531 50.458266 27.894531 49.947266 C 27.864531 49.436266 27.715141 48.876969 27.369141 48.417969 C 27.205623 48.198523 26.987108 48.025215 26.75 47.888672 C 26.732918 47.477809 26.716564 47.076248 26.699219 46.689453 C 26.923567 46.752313 27.15977 46.801404 27.416016 46.826172 C 28.155028 46.897373 28.844766 46.811913 29.466797 46.605469 C 29.528719 47.829375 29.700419 50.873276 30.25 56 C 31 63 31.993141 63.999 31.994141 64 C 31.995141 63.999 33 63 33.75 56 C 34.299488 50.873335 34.469537 47.829785 34.53125 46.605469 C 35.153732 46.812349 35.844274 46.89744 36.583984 46.826172 C 36.84023 46.801404 37.076433 46.752313 37.300781 46.689453 C 37.28303 47.08498 37.267476 47.495397 37.25 47.916016 C 37.029467 48.048801 36.825545 48.211739 36.671875 48.417969 C 36.325875 48.876969 36.176484 49.436266 36.146484 49.947266 C 36.108484 50.458266 36.157391 51.018875 36.400391 51.546875 C 36.5571 51.896814 36.805871 52.210497 37.097656 52.466797 C 37.029795 55.330866 37.02785 57.980194 37.210938 59.158203 C 37.688003 57.788866 38.122403 55.586212 38.515625 53.166016 C 38.723092 53.216653 38.931528 53.262881 39.138672 53.28125 C 40.202672 53.37425 42.538859 53.064094 44.130859 51.871094 C 45.427043 50.901437 47.913088 48.893973 47.339844 44.974609 C 47.763778 44.449044 48.079883 43.836453 48.212891 43.121094 C 48.806427 39.927001 46.997549 37.503049 45.195312 36.050781 C 44.611287 35.580165 44.038919 35.219841 43.5 34.908203 C 43.651832 34.664972 43.816364 34.418566 43.955078 34.179688 C 44.311078 33.563688 44.743828 32.688969 44.548828 32.417969 C 44.305489 32.357468 43.545098 33.256959 42.496094 34.365234 C 41.90014 34.078516 41.476563 33.917969 41.476562 33.917969 A 1.0001 1.0001 0 0 0 41.083984 33.859375 A 1.0001 1.0001 0 0 0 40.427734 35.5625 C 40.56996 35.70563 40.696663 35.850163 40.826172 35.994141 C 39.817776 36.896838 38.656729 37.774007 37.367188 38.361328 C 37.377305 38.196342 37.372928 38.084116 37.386719 37.90625 A 1.0001 1.0001 0 0 0 37.386719 37.904297 C 37.624895 34.827712 39.265361 33.927662 40.578125 32.357422 C 44.141584 30.549345 57.520277 30.88153 58.994141 17.105469 A 1.0001 1.0001 0 0 0 57.976562 16 A 1.0001 1.0001 0 0 0 57.113281 16.537109 C 55.900391 18.855884 54.659091 19.980995 53.039062 20.621094 C 51.843626 21.09343 50.375625 21.278184 48.5625 21.318359 C 48.756825 21.048924 48.951473 20.777676 49.140625 20.484375 C 51.813741 16.34009 54.582031 15.105469 54.582031 15.105469 A 1.0001 1.0001 0 0 0 54.931641 13.554688 C 54.931641 13.554688 54.410563 12.947774 53.490234 12.416016 C 52.758373 11.993152 51.653619 11.651604 50.349609 11.5 C 50.420462 9.6884702 50.199533 7.9763849 49.382812 6.4804688 C 48.416484 4.710526 46.770806 3.2569351 44.4375 2.1035156 A 1.0001 1.0001 0 0 0 43.953125 2 A 1.0001 1.0001 0 0 0 43.037109 3.2871094 C 43.892021 6.1368132 44.756145 8.1830319 44.53125 9.859375 C 44.42829 10.626831 44.099842 11.411483 43.404297 12.265625 C 37.992009 8.4347355 32.058594 8.0996094 32.058594 8.0996094 A 1.0001 1.0001 0 0 0 31.957031 8.0976562 A 1.0001 1.0001 0 0 0 31.941406 8.0996094 C 31.941406 8.0996094 26.007989 8.433886 20.595703 12.265625 C 19.900158 11.411483 19.57171 10.626831 19.46875 9.859375 C 19.243855 8.1830319 20.107979 6.1368132 20.962891 3.2871094 A 1.0001 1.0001 0 0 0 19.96875 2 z M 18.207031 5.3554688 C 17.688143 6.9630551 17.270596 8.5169564 17.486328 10.125 C 17.670007 11.494122 18.382607 12.805856 19.693359 14.140625 A 1.0001 1.0001 0 0 0 19.894531 14.351562 C 20.819671 15.250775 22.018397 16.162185 23.539062 17.111328 C 23.977616 18.59134 24.316985 20.286935 24.330078 21.841797 C 24.341268 23.170511 24.064113 24.274826 23.625 25.130859 C 23.267098 25.049839 22.896026 25.028711 21.773438 24.419922 C 20.254006 23.595921 18.285897 22.109049 16.539062 19.400391 C 14.529575 16.284967 12.725683 14.907991 11.535156 14.136719 C 12.197945 13.757609 13.201732 13.367188 14.632812 13.367188 A 1.0001 1.0001 0 0 0 15.626953 12.257812 C 15.414498 10.341522 15.640875 8.7785572 16.373047 7.4375 C 16.782122 6.6882317 17.41589 6.0039264 18.207031 5.3554688 z M 45.792969 5.3554688 C 46.58411 6.0039263 47.217878 6.6882317 47.626953 7.4375 C 48.359125 8.7785572 48.585502 10.341521 48.373047 12.257812 A 1.0001 1.0001 0 0 0 49.367188 13.367188 C 50.798268 13.367188 51.802055 13.757609 52.464844 14.136719 C 51.274317 14.907991 49.470425 16.284967 47.460938 19.400391 C 45.714104 22.109049 43.745995 23.595921 42.226562 24.419922 C 41.103974 25.028711 40.732902 25.049842 40.375 25.130859 C 39.935887 24.274826 39.658733 23.170511 39.669922 21.841797 C 39.683012 20.286935 40.022384 18.59134 40.460938 17.111328 C 41.980475 16.162889 43.178645 15.25208 44.103516 14.353516 A 1.0001 1.0001 0 0 0 44.308594 14.138672 C 45.618077 12.804592 46.330085 11.493439 46.513672 10.125 C 46.729404 8.5169564 46.311857 6.9630551 45.792969 5.3554688 z M 32 10.107422 C 32.089777 10.113154 37.197005 10.448399 41.955078 13.683594 C 41.197616 14.308503 40.257348 14.974409 39.033203 15.708984 A 1.0001 1.0001 0 0 0 38.591797 16.269531 C 38.06609 17.962717 37.687846 19.927587 37.671875 21.824219 C 37.656411 23.66071 37.968671 25.462824 38.986328 26.849609 C 39.501329 27.903616 39.60756 28.848066 39.548828 29.583984 C 39.489468 30.327838 39.188995 30.90501 39.175781 30.921875 C 38.258097 32.092798 35.700084 33.777867 35.392578 37.75 C 35.28292 39.163883 35.206992 40.252342 35.464844 41.220703 C 35.593768 41.704884 35.842823 42.194325 36.277344 42.535156 C 36.711864 42.875987 37.264052 43.009766 37.802734 43.009766 C 38.759141 43.009766 39.409684 42.809123 39.833984 42.826172 C 39.909564 42.829172 40.034061 42.977619 40.107422 42.988281 C 39.405965 43.370648 38.476259 43.808784 38.056641 44.083984 C 37.307286 44.575438 37.007536 44.774543 36.392578 44.833984 C 35.243139 44.944729 34.681704 44.671537 34.162109 44.044922 C 33.642515 43.418307 33.233479 42.301331 32.986328 40.820312 A 1.0001 1.0001 0 0 0 31.013672 40.820312 C 30.766521 42.30133 30.357485 43.418307 29.837891 44.044922 C 29.318296 44.671537 28.756861 44.944729 27.607422 44.833984 C 26.992464 44.774544 26.692714 44.575438 25.943359 44.083984 C 25.523741 43.808784 24.594035 43.370648 23.892578 42.988281 C 23.965948 42.977621 24.090412 42.829209 24.166016 42.826172 C 24.59048 42.809122 25.240859 43.009766 26.197266 43.009766 C 26.735948 43.009766 27.288177 42.874122 27.722656 42.533203 C 28.157136 42.192285 28.406336 41.704821 28.535156 41.220703 C 28.792797 40.252467 28.716555 39.16566 28.607422 37.751953 A 1.0001 1.0001 0 0 0 28.607422 37.75 C 28.304101 33.831928 25.823526 32.145678 24.875 30.976562 A 1.0001 1.0001 0 0 0 24.814453 30.898438 C 24.785841 30.850634 24.5087 30.306053 24.451172 29.583984 C 24.392534 28.847959 24.499033 27.903708 25.013672 26.849609 C 26.031329 25.462824 26.34359 23.66071 26.328125 21.824219 C 26.312155 19.927587 25.93391 17.962717 25.408203 16.269531 A 1.0001 1.0001 0 0 0 24.966797 15.708984 C 23.742652 14.974409 22.802384 14.308503 22.044922 13.683594 C 26.803002 10.447723 31.910224 10.113181 32 10.107422 z M 31 12.607422 C 30.447 12.607422 30 13.054422 30 13.607422 C 30 14.160422 30.447 14.607422 31 14.607422 L 33 14.607422 C 33.553 14.607422 34 14.160422 34 13.607422 C 34 13.054422 33.553 12.607422 33 12.607422 L 31 12.607422 z M 16.25 14.162109 A 1.0001 1.0001 0 0 0 15.382812 15.646484 C 16.118677 17.017166 17.210937 17.839844 17.210938 17.839844 A 1.0001 1.0001 0 1 0 18.429688 16.253906 C 18.429688 16.253906 17.646667 15.636491 17.144531 14.701172 A 1.0001 1.0001 0 0 0 16.25 14.162109 z M 47.720703 14.162109 A 1.0001 1.0001 0 0 0 46.855469 14.701172 C 46.353333 15.636491 45.570313 16.253906 45.570312 16.253906 A 1.0001 1.0001 0 1 0 46.789062 17.839844 C 46.789062 17.839844 47.881323 17.017166 48.617188 15.646484 A 1.0001 1.0001 0 0 0 47.720703 14.162109 z M 31 16.996094 C 30.447 16.996094 30 17.443094 30 17.996094 C 30 18.549094 30.447 18.996094 31 18.996094 L 33 18.996094 C 33.553 18.996094 34 18.549094 34 17.996094 C 34 17.443094 33.553 16.996094 33 16.996094 L 31 16.996094 z M 56.078125 20.980469 C 53.406196 28.101287 46.287359 28.312311 41.533203 29.824219 C 41.53574 29.796027 41.540685 29.772762 41.542969 29.744141 C 41.605941 28.955042 41.528766 28.024028 41.210938 27.03125 C 41.751425 26.850615 42.414828 26.594477 43.179688 26.179688 C 44.298318 25.573044 45.605787 24.661194 46.904297 23.318359 C 49.575539 23.363972 51.812481 23.256049 53.775391 22.480469 C 54.621593 22.146121 55.359218 21.588374 56.078125 20.980469 z M 7.9375 20.988281 C 8.6527229 21.59057 9.3836904 22.148186 10.224609 22.480469 C 12.187333 23.256024 14.424463 23.36164 17.095703 23.316406 C 18.394534 24.659794 19.701402 25.572892 20.820312 26.179688 C 21.585936 26.594892 22.250292 26.850627 22.791016 27.03125 C 22.472808 28.02415 22.394132 28.95465 22.457031 29.744141 C 22.457867 29.754626 22.460068 29.76301 22.460938 29.773438 C 17.811838 28.241388 10.636687 28.013944 7.9375 20.988281 z M 31 21.384766 C 30.447 21.384766 30 21.831766 30 22.384766 C 30 22.937766 30.447 23.384766 31 23.384766 L 33 23.384766 C 33.553 23.384766 34 22.937766 34 22.384766 C 34 21.831766 33.553 21.384766 33 21.384766 L 31 21.384766 z M 27.722656 26.943359 C 26.789656 27.741359 26.135766 30.183078 27.259766 30.580078 C 28.383766 30.977078 30.167859 30.514078 30.630859 30.580078 C 30.763859 29.257078 30.421656 28.103359 27.722656 26.943359 z M 36.277344 26.943359 C 33.578344 28.103359 33.236141 29.257078 33.369141 30.580078 C 33.832141 30.514078 35.616234 30.977078 36.740234 30.580078 C 37.864234 30.183078 37.210344 27.741359 36.277344 26.943359 z M 22.101562 37.386719 C 22.774052 38.428682 23.348252 39.397521 23.566406 40.164062 C 23.60713 40.307238 23.65807 40.656889 23.703125 40.886719 C 23.068986 40.991032 22.390149 41.30291 21.707031 41.880859 C 21.528486 41.763749 21.39416 41.619676 21.289062 41.4375 C 21.108248 41.124074 21.006849 40.666892 21.064453 40.068359 C 21.136367 39.321148 21.470343 38.380528 22.101562 37.386719 z M 41.900391 37.386719 C 42.530651 38.379666 42.86369 39.319781 42.935547 40.066406 C 42.993147 40.664939 42.891747 41.122121 42.710938 41.435547 C 42.605408 41.618473 42.470714 41.763517 42.291016 41.880859 C 41.608848 41.303527 40.932018 40.991358 40.298828 40.886719 C 40.343888 40.657353 40.394884 40.308978 40.435547 40.166016 C 40.653794 39.399148 41.22753 38.429188 41.900391 37.386719 z M 44.351562 38.080078 C 45.621186 39.23918 46.630332 40.688096 46.246094 42.755859 C 46.041088 43.858451 44.959901 44.694435 43.447266 45.025391 C 42.487946 45.235284 41.422725 45.195056 40.496094 44.923828 C 41.017716 44.631018 41.649208 44.315326 42.476562 43.976562 A 1.0001 1.0001 0 0 0 42.517578 43.957031 C 43.345306 43.682761 44.034696 43.143929 44.443359 42.435547 C 44.876795 41.684223 45.014177 40.793467 44.925781 39.875 C 44.870091 39.296386 44.577872 38.684267 44.351562 38.080078 z M 19.648438 38.082031 C 19.422128 38.68622 19.129906 39.298339 19.074219 39.876953 C 18.985819 40.79542 19.123209 41.686176 19.556641 42.4375 C 19.965304 43.145882 20.654694 43.684714 21.482422 43.958984 A 1.0001 1.0001 0 0 0 21.490234 43.962891 A 1.0001 1.0001 0 0 0 21.523438 43.976562 C 22.352626 44.316077 22.985535 44.632424 23.507812 44.925781 C 22.580342 45.197391 21.513296 45.235555 20.552734 45.025391 C 19.040099 44.694435 17.958912 43.858451 17.753906 42.755859 C 17.369668 40.688096 18.378814 39.241133 19.648438 38.082031 z M 39.447266 46.689453 C 40.531167 47.104321 41.716681 47.234798 42.867188 47.126953 C 43.018915 49.435845 41.894131 50.579205 41.279297 51.089844 C 40.684297 51.491844 39.933891 51.743859 39.212891 51.755859 C 39.0689 51.750791 38.909358 51.720371 38.748047 51.677734 C 39.003919 49.981087 39.232876 48.305108 39.447266 46.689453 z M 24.552734 46.691406 C 24.767548 48.310235 24.997455 49.98983 25.253906 51.689453 C 25.106132 51.725895 24.96058 51.751197 24.828125 51.755859 C 24.107125 51.743859 23.356719 51.491844 22.761719 51.089844 C 22.147252 50.57951 21.023725 49.436972 21.173828 47.130859 C 22.31156 47.232164 23.481733 47.100864 24.552734 46.691406 z"/></svg>