<?xml version="1.0" standalone="no"?>
<!DOCTYPE svg PUBLIC "-//W3C//DTD SVG 20010904//EN"
 "http://www.w3.org/TR/2001/REC-SVG-20010904/DTD/svg10.dtd">
<svg version="1.0" xmlns="http://www.w3.org/2000/svg"
 width="480.000000pt" height="306.000000pt" viewBox="0 0 480.000000 306.000000"
 preserveAspectRatio="xMidYMid meet">

<g transform="translate(0.000000,306.000000) scale(0.100000,-0.100000)"
fill="#000000" stroke="none">
<path d="M2273 2960 c0 -30 2 -43 4 -27 2 15 2 39 0 55 -2 15 -4 2 -4 -28z"/>
<path d="M110 2926 c0 -2 7 -7 16 -10 8 -3 12 -2 9 4 -6 10 -25 14 -25 6z"/>
<path d="M164 2895 c11 -8 27 -15 35 -15 9 0 45 -17 81 -36 139 -77 211 -114
219 -114 15 0 83 -31 79 -35 -2 -3 -20 0 -39 6 -53 16 -99 20 -99 9 0 -5 8
-10 19 -10 10 0 38 -19 62 -41 47 -44 72 -57 219 -108 36 -13 112 -39 170 -58
143 -49 180 -65 173 -76 -3 -6 -1 -7 6 -3 9 6 59 -15 148 -63 10 -5 25 -12 33
-15 8 -3 44 -24 80 -47 117 -74 146 -87 222 -99 64 -11 79 -10 105 3 49 26 46
8 -8 -43 -54 -52 -55 -55 -50 -210 3 -85 8 -113 22 -105 5 3 6 0 3 -8 -5 -14
-59 -29 -69 -19 -3 3 -5 18 -5 34 l0 30 -40 -35 c-43 -36 -80 -47 -166 -47
-40 0 -62 7 -110 36 -32 20 -63 37 -69 38 -5 1 -16 6 -24 10 -16 10 -8 -7 16
-36 13 -14 19 -32 22 -60 2 -12 55 -58 68 -58 7 0 10 -7 7 -15 -9 -21 28 -26
129 -17 48 4 87 4 87 0 0 -4 37 -7 83 -7 59 1 74 4 52 9 l-30 8 30 1 c17 0 72
-8 124 -19 110 -23 134 -25 111 -9 -12 9 -11 10 5 4 41 -14 58 -14 92 0 19 8
37 14 41 14 20 -3 32 2 27 11 -4 7 6 10 27 9 18 -1 38 -1 43 1 24 6 35 -2 35
-26 l0 -27 88 5 c67 5 99 12 140 32 28 15 52 31 52 37 0 5 7 9 16 9 39 0 129
82 139 128 2 9 11 35 19 57 18 47 20 69 6 60 -6 -3 -7 1 -4 9 3 9 1 16 -4 16
-14 0 -42 -40 -42 -60 0 -9 -13 -34 -30 -57 -26 -35 -48 -50 -141 -94 -20 -9
-162 6 -189 21 -11 6 -17 16 -14 22 5 7 2 9 -8 5 -17 -6 -47 21 -67 61 -7 12
-17 20 -24 17 -7 -4 -5 0 4 7 15 12 15 15 -7 25 -23 10 -35 1 -15 -12 5 -3 8
-17 5 -31 -3 -16 3 -36 17 -56 l22 -30 -21 11 c-20 11 -22 9 -22 -19 0 -17 -7
-38 -15 -47 -9 -9 -13 -24 -10 -37 5 -19 5 -19 -7 -5 -8 9 -34 24 -58 32 -43
15 -44 16 -13 17 17 0 34 6 36 13 4 9 6 9 6 -1 1 -19 41 9 41 30 0 23 -17 32
-27 15 -17 -29 -48 -37 -112 -26 -34 5 -66 7 -70 5 -10 -7 -33 42 -26 55 4 5
-2 6 -12 2 -15 -6 -16 -5 -3 9 13 15 17 15 26 2 17 -22 37 -18 24 5 -5 11 -10
30 -10 43 0 13 -5 30 -10 38 -7 10 -8 3 -5 -24 4 -31 3 -37 -8 -28 -9 7 -13
30 -12 59 3 63 3 63 19 63 10 0 12 21 9 103 -2 56 -5 110 -8 120 -3 14 1 16
18 11 12 -3 23 -7 24 -8 1 -1 4 -92 6 -202 2 -110 7 -205 11 -212 11 -19 36
-14 36 7 0 11 5 23 10 26 6 3 10 11 10 16 0 6 -6 7 -13 3 -9 -6 -9 -4 -1 7 6
8 11 21 11 29 1 8 4 23 8 33 5 11 3 17 -6 17 -12 0 -12 2 0 9 10 6 10 13 2 29
-6 11 -8 29 -4 39 5 15 3 16 -7 6 -8 -8 -13 -34 -13 -65 l1 -53 -7 45 c-4 25
-4 52 0 60 4 8 6 26 4 40 -1 14 -3 53 -4 88 -1 47 -4 62 -13 57 -7 -4 -5 0 5
8 13 11 17 29 17 76 0 33 -4 61 -9 61 -18 0 -41 -44 -41 -77 0 -20 -5 -33 -13
-33 -17 0 -37 20 -37 38 0 7 -16 34 -36 58 l-36 44 36 -15 36 -15 0 29 c0 19
8 35 21 45 12 8 18 19 14 25 -9 15 -53 14 -142 -5 -95 -19 -148 -44 -147 -67
2 -22 3 -22 -49 13 -25 16 -60 31 -80 32 -19 2 -33 6 -30 11 2 4 -2 7 -9 7 -8
0 -45 19 -84 43 -38 24 -75 42 -82 39 -7 -2 -26 1 -42 7 -21 7 -30 7 -30 0 0
-6 -16 9 -36 33 -38 45 -53 58 -68 58 -5 0 14 -24 43 -54 28 -30 51 -58 51
-63 0 -4 -12 7 -26 25 -14 17 -34 32 -44 32 -11 0 -68 17 -127 39 -166 59
-232 80 -308 96 -53 11 -74 20 -88 40 -10 14 -23 25 -29 25 -6 0 -3 -9 7 -20
18 -20 18 -20 -11 -6 -93 45 -285 121 -329 130 -28 6 -29 5 -11 -9z m1546
-745 c0 -5 -4 -10 -10 -10 -5 0 -10 5 -10 10 0 6 5 10 10 10 6 0 10 -4 10 -10z
m87 -32 c-3 -7 -5 -2 -5 12 0 14 2 19 5 13 2 -7 2 -19 0 -25z m-2 -48 c3 -5 1
-10 -4 -10 -6 0 -11 5 -11 10 0 6 2 10 4 10 3 0 8 -4 11 -10z m731 -205 c-22
-19 -44 -35 -49 -35 -13 0 -11 2 38 39 54 40 59 38 11 -4z m-846 -86 c0 -6
-22 -9 -55 -8 -30 1 -52 6 -49 11 8 12 104 10 104 -3z"/>
<path d="M2260 2859 c0 -48 -41 -145 -85 -204 -15 -18 -26 -37 -25 -42 1 -4
-7 -10 -17 -14 -15 -5 -10 -10 23 -27 22 -11 41 -28 41 -37 0 -13 -12 -15 -68
-13 -55 2 -66 5 -57 15 6 8 7 13 0 13 -5 0 -15 -6 -21 -13 -8 -11 -7 -18 7
-30 16 -15 27 -15 78 -6 32 6 66 15 75 20 12 6 28 0 57 -21 44 -32 69 -61 30
-36 -19 13 -56 17 -159 19 -92 2 -147 8 -176 19 -24 8 -43 14 -43 13 0 -2 24
-20 53 -41 28 -20 62 -48 74 -63 21 -25 25 -25 135 -24 63 1 107 -2 99 -6 -9
-6 -6 -10 12 -15 13 -3 46 -24 73 -46 53 -44 64 -48 64 -25 0 9 15 23 34 32
l35 16 -47 53 c-38 43 -55 76 -89 171 -28 78 -42 108 -42 88 0 -16 8 -50 19
-74 11 -24 20 -52 20 -62 0 -10 5 -19 11 -19 8 0 8 -4 -1 -15 -6 -8 -9 -19 -5
-25 8 -13 -5 -13 -25 0 -10 6 -11 10 -2 10 19 0 14 20 -5 20 -10 0 -37 11 -61
25 -25 14 -50 21 -59 18 -15 -6 -16 -5 -3 9 8 8 20 14 26 11 6 -2 19 15 29 39
28 71 29 82 17 215 -8 89 -22 123 -22 52z m-56 -225 c3 -8 2 -12 -4 -9 -6 3
-10 10 -10 16 0 14 7 11 14 -7z m46 -30 c0 -8 -4 -12 -10 -9 -5 3 -10 13 -10
21 0 8 5 12 10 9 6 -3 10 -13 10 -21z m-39 -37 c-10 -10 -12 -9 -9 3 2 9 -3
14 -11 12 -8 -2 -21 0 -30 3 -14 6 -14 8 3 20 16 12 21 11 39 -6 17 -15 18
-22 8 -32z m159 -155 c-7 -3 -19 3 -28 13 -16 15 -15 16 12 4 15 -7 23 -15 16
-17z"/>
<path d="M550 2782 c0 -16 28 -28 85 -36 50 -6 148 -34 240 -66 94 -34 92 -33
75 -21 -12 9 -6 10 25 5 22 -4 38 -4 35 -1 -11 11 -412 118 -425 113 -7 -2
-18 1 -24 7 -8 8 -11 8 -11 -1z"/>
<path d="M4450 2756 c-41 -12 -87 -27 -101 -33 -15 -7 -37 -9 -49 -6 -18 5
-21 3 -15 -7 6 -10 4 -12 -10 -6 -25 9 -86 -4 -78 -17 3 -6 1 -7 -5 -3 -11 6
-198 -24 -302 -49 -30 -7 -89 -16 -130 -20 -41 -3 -111 -13 -155 -20 -44 -8
-85 -15 -91 -15 -7 0 -14 -9 -17 -21 -5 -17 -2 -20 16 -16 12 3 51 8 87 11
l65 5 -75 -19 c-136 -36 -145 -36 -115 4 22 30 17 45 -5 17 -11 -13 -20 -31
-20 -41 0 -16 -8 -18 -69 -15 -39 2 -93 -3 -123 -11 -29 -7 -66 -14 -81 -14
-42 0 -88 -25 -153 -81 -53 -47 -57 -49 -75 -33 -17 15 -17 19 -3 46 9 16 13
32 10 35 -3 3 -8 -1 -12 -10 -5 -14 -9 -12 -29 8 -12 14 -29 25 -37 25 -8 0
-20 10 -26 23 -9 18 -11 19 -11 4 -1 -22 47 -69 62 -60 6 3 7 1 3 -6 -4 -6 0
-14 8 -17 18 -7 12 -24 -9 -24 -7 0 -37 23 -67 52 -41 41 -49 53 -35 56 9 2
17 8 17 13 0 6 -6 7 -16 1 -9 -5 -26 -7 -38 -5 -19 4 -19 3 -3 -7 37 -24 14
-29 -31 -6 -61 31 -168 66 -201 66 -21 0 -17 -5 24 -24 64 -30 103 -69 111
-112 5 -27 17 -42 60 -70 30 -20 68 -49 85 -65 30 -28 31 -30 24 -91 -4 -37
-19 -87 -36 -120 -16 -32 -29 -73 -29 -91 0 -19 -3 -37 -7 -40 -3 -4 -7 -18
-9 -31 -2 -18 6 -31 32 -48 18 -13 34 -25 34 -28 0 -3 15 -7 33 -8 41 -3 102
21 111 43 3 9 10 13 16 10 5 -3 10 -1 10 5 0 6 4 9 9 6 4 -3 15 2 23 12 24 27
30 42 19 42 -6 0 -11 -7 -11 -16 0 -8 -4 -13 -9 -10 -5 3 -14 -1 -21 -9 -34
-41 -45 11 -19 87 10 32 33 80 49 107 17 26 30 54 30 60 0 24 24 5 37 -30 12
-32 13 -32 7 -4 -3 17 -13 38 -21 48 -9 9 -14 17 -12 18 2 0 11 2 19 4 9 1 36
16 60 33 74 49 172 95 204 95 17 0 37 7 45 14 7 8 20 12 27 9 8 -3 14 -1 14 4
0 6 7 10 15 10 9 0 12 -6 8 -15 -5 -14 -2 -14 21 -4 15 7 25 18 22 24 -2 7 8
10 27 9 17 -1 60 9 96 23 36 13 75 25 86 24 10 0 34 11 52 25 18 14 33 20 33
14 0 -6 5 -8 13 -3 6 4 22 6 35 4 14 -1 22 3 22 13 0 9 6 13 14 10 8 -3 25 0
38 7 13 7 36 13 51 14 16 1 32 6 35 11 4 5 12 9 17 10 30 2 75 18 75 25 0 5
14 9 30 9 17 0 30 4 30 9 0 5 17 12 38 16 20 3 44 10 52 15 15 9 -11 12 -99
11 -24 0 -41 2 -38 6 4 3 104 38 224 79 213 71 264 94 113 50z m-893 -192 c-3
-3 -12 -4 -19 -1 -8 3 -5 6 6 6 11 1 17 -2 13 -5z"/>
<path d="M141 2545 c25 -33 72 -87 106 -120 57 -57 60 -63 62 -110 2 -72 11
-111 22 -94 7 11 9 9 9 -6 0 -11 3 -31 6 -45 5 -24 5 -24 -10 -6 -8 10 -13 24
-9 30 4 8 3 8 -6 0 -9 -9 -6 -22 14 -58 15 -26 24 -50 21 -54 -7 -7 -8 -5 -29
38 l-17 35 0 -57 c0 -36 5 -58 13 -61 10 -4 10 -6 0 -6 -10 -1 -13 -44 -13
-182 0 -134 3 -178 12 -173 8 5 9 0 6 -14 -5 -17 -1 -23 18 -28 13 -3 34 -18
47 -33 20 -24 124 -81 147 -81 5 0 16 -7 24 -16 9 -8 27 -17 41 -18 14 -1 28
-6 32 -9 3 -4 17 -7 30 -7 13 0 23 -4 23 -9 0 -4 29 -8 65 -8 36 1 65 4 65 8
0 4 7 10 16 13 8 3 12 2 9 -4 -3 -6 1 -7 9 -4 9 3 16 10 16 14 0 4 12 11 26
14 18 5 24 11 20 23 -8 20 23 44 46 37 18 -5 26 2 96 79 29 32 34 45 38 104 3
40 1 63 -4 55 -6 -9 -11 -6 -20 12 -9 20 -17 24 -38 20 -21 -4 -25 -2 -21 10
5 13 3 14 -13 3 -11 -6 -20 -15 -20 -20 0 -4 4 -5 10 -2 5 3 18 1 27 -4 11 -7
13 -11 5 -11 -9 0 -11 -7 -7 -19 4 -14 -7 -35 -37 -72 -24 -29 -47 -51 -51
-48 -5 2 -13 -4 -18 -14 -6 -9 -14 -15 -20 -12 -9 6 -14 -9 -9 -30 1 -5 -2 -7
-6 -2 -4 4 -22 -7 -40 -24 -31 -30 -33 -30 -75 -19 -24 7 -53 16 -64 20 -11 5
-38 14 -60 21 -22 6 -44 15 -49 20 -6 5 -18 9 -27 9 -9 0 -22 7 -29 15 -7 8
-29 15 -50 15 -25 0 -50 9 -78 30 l-42 30 -1 73 c-1 226 -4 257 -19 257 -12 1
-11 4 4 15 16 12 21 11 43 -13 l25 -27 -21 32 -22 32 50 25 c27 14 52 30 56
36 3 5 11 10 16 10 5 0 1 -10 -10 -21 -20 -22 -36 -90 -29 -125 2 -14 13 -19
38 -21 19 0 25 1 13 4 -28 5 -30 23 -4 23 11 0 23 9 27 22 3 12 10 26 15 32
32 40 99 130 99 135 0 12 86 59 120 67 47 10 107 6 131 -9 11 -7 23 -24 26
-39 3 -16 9 -28 14 -28 5 0 6 8 3 18 -4 13 0 11 15 -6 19 -21 20 -22 29 -5 5
10 9 35 8 56 -1 24 3 37 12 37 6 0 12 5 12 10 0 6 -6 10 -12 8 -7 -1 -34 18
-59 43 -50 51 -80 61 -182 60 -86 -1 -125 -6 -134 -15 -4 -5 2 -5 15 -2 32 10
27 -9 -5 -23 -16 -7 -41 -24 -58 -38 -16 -14 -23 -22 -15 -17 13 7 13 5 1 -9
-7 -9 -18 -14 -24 -10 -6 4 -8 0 -4 -11 4 -9 3 -15 -2 -12 -5 3 -15 -14 -22
-39 -7 -25 -17 -45 -21 -45 -4 0 -8 -6 -9 -12 -1 -21 -66 -69 -95 -71 -25 -2
-27 0 -29 48 -1 28 -5 60 -9 72 -4 12 -3 24 2 27 5 3 7 24 5 46 -4 40 -4 41
24 35 25 -6 26 -5 8 6 -10 7 -55 48 -99 91 -44 43 -84 78 -88 78 -5 0 -29 19
-55 43 l-46 42 44 -60z m186 -467 c-3 -7 -5 -2 -5 12 0 14 2 19 5 13 2 -7 2
-19 0 -25z m171 -6 c-13 -16 -25 -25 -26 -20 -2 4 7 17 20 28 32 27 33 25 6
-8z m14 -24 c-7 -7 -12 -8 -12 -2 0 14 12 26 19 19 2 -3 -1 -11 -7 -17z m571
-375 c-4 -10 -8 -11 -12 -4 -4 7 -23 -6 -47 -31 -21 -24 -30 -35 -18 -25 37
30 39 18 4 -18 -37 -36 -66 -49 -35 -15 22 25 9 26 -19 3 -12 -10 -4 1 17 24
22 22 40 52 40 65 2 19 7 23 23 20 12 -2 25 2 29 8 10 16 25 -7 18 -27z"/>
<path d="M1285 2569 c40 -27 122 -69 135 -69 5 0 10 8 10 18 0 13 -9 18 -40
18 -25 1 -55 11 -80 28 -22 14 -43 26 -47 26 -5 0 6 -9 22 -21z"/>
<path d="M150 2576 c0 -3 30 -25 68 -49 61 -40 148 -75 158 -64 3 2 -17 10
-43 17 -26 8 -73 30 -103 50 -71 47 -80 52 -80 46z"/>
<path d="M1795 2549 c-16 -6 -68 -8 -113 -4 -75 5 -82 4 -69 -10 9 -8 25 -15
37 -15 12 0 18 -4 15 -10 -16 -25 147 2 177 29 20 20 21 21 2 20 -10 0 -32 -5
-49 -10z"/>
<path d="M3345 2553 c-94 -16 -87 -33 14 -33 68 0 79 3 83 18 5 16 -1 19 -36
18 -22 0 -50 -2 -61 -3z"/>
<path d="M1447 2543 c-4 -3 -7 -15 -7 -26 0 -11 -8 -26 -17 -33 -16 -12 -16
-13 -2 -14 22 0 42 25 45 56 3 23 -6 31 -19 17z"/>
<path d="M1477 2530 c-3 -11 -3 -20 -1 -20 2 0 8 9 14 20 6 11 7 20 2 20 -6 0
-12 -9 -15 -20z"/>
<path d="M3060 2540 c-8 -5 -10 -10 -5 -10 6 0 21 -3 35 -7 23 -6 24 -6 8 10
-19 20 -19 20 -38 7z"/>
<path d="M3110 2546 c0 -2 7 -6 15 -10 8 -3 15 -1 15 4 0 6 -7 10 -15 10 -8 0
-15 -2 -15 -4z"/>
<path d="M3173 2533 c14 -16 15 -23 6 -29 -7 -4 -10 -3 -6 3 4 6 0 13 -8 17
-19 7 -28 -9 -12 -22 12 -11 67 -5 67 7 0 4 -15 15 -32 26 l-33 18 18 -20z"/>
<path d="M3212 2538 c7 -21 36 -34 48 -22 9 9 3 14 -20 22 -24 9 -31 9 -28 0z"/>
<path d="M1517 2529 c7 -7 15 -10 18 -7 3 3 -2 9 -12 12 -14 6 -15 5 -6 -5z"/>
<path d="M1575 2520 c-3 -5 3 -10 15 -10 12 0 18 5 15 10 -3 6 -10 10 -15 10
-5 0 -12 -4 -15 -10z"/>
<path d="M1840 2515 c0 -8 5 -15 10 -15 6 0 10 7 10 15 0 8 -4 15 -10 15 -5 0
-10 -7 -10 -15z"/>
<path d="M2318 2513 c7 -3 16 -2 19 1 4 3 -2 6 -13 5 -11 0 -14 -3 -6 -6z"/>
<path d="M1473 2494 c-21 -9 -15 -23 18 -40 30 -15 34 -15 75 6 49 24 54 29
24 27 -11 -1 -20 -6 -20 -12 0 -5 -4 -4 -8 3 -9 14 -69 25 -89 16z"/>
<path d="M398 2453 c6 -2 18 -2 25 0 6 3 1 5 -13 5 -14 0 -19 -2 -12 -5z"/>
<path d="M557 2404 c3 -7 9 -14 14 -14 14 0 10 17 -5 23 -10 4 -13 1 -9 -9z"/>
<path d="M2978 2408 c-29 -10 -35 -22 -17 -34 11 -6 57 31 48 39 -2 3 -16 0
-31 -5z"/>
<path d="M1030 2392 c0 -12 19 -26 26 -19 2 2 -2 10 -11 17 -9 8 -15 8 -15 2z"/>
<path d="M2033 2374 c15 -8 27 -17 27 -20 0 -3 -4 -3 -9 0 -5 3 -14 -1 -21 -9
-11 -13 -10 -18 6 -30 10 -8 22 -15 26 -15 8 0 24 -50 33 -102 3 -21 7 -38 9
-38 2 0 29 9 62 21 45 15 71 19 109 14 58 -8 96 -7 104 1 10 10 -110 114 -154
134 -34 16 -196 61 -214 60 -3 -1 6 -8 22 -16z"/>
<path d="M565 2370 c-3 -5 -2 -10 4 -10 5 0 13 5 16 10 3 6 2 10 -4 10 -5 0
-13 -4 -16 -10z"/>
<path d="M2667 2362 c7 -5 14 -21 15 -38 1 -16 6 -35 11 -41 5 -7 7 -22 4 -33
-3 -11 -1 -20 4 -20 5 0 9 -32 9 -71 0 -84 9 -82 60 7 25 43 29 57 21 73 -14
26 -15 52 -1 31 6 -9 10 -10 10 -3 0 12 -70 73 -107 92 -25 12 -45 15 -26 3z"/>
<path d="M516 2318 c-14 -18 -23 -34 -20 -37 2 -2 5 -2 7 0 1 2 12 19 25 37
29 41 21 42 -12 0z"/>
<path d="M1080 2332 c0 -12 19 -26 26 -19 2 2 -2 10 -11 17 -9 8 -15 8 -15 2z"/>
<path d="M3865 2330 c3 -5 8 -10 11 -10 2 0 4 5 4 10 0 6 -5 10 -11 10 -5 0
-7 -4 -4 -10z"/>
<path d="M1112 2307 c-16 -7 -22 -17 -19 -29 3 -10 1 -21 -5 -24 -5 -3 -7 -12
-5 -19 3 -7 -14 -35 -38 -62 -25 -28 -41 -54 -37 -58 4 -5 2 -5 -5 -1 -6 3
-15 1 -18 -5 -4 -5 -40 -35 -81 -65 -41 -30 -74 -58 -74 -62 0 -4 25 -19 55
-34 40 -21 56 -25 61 -15 4 6 4 9 -1 5 -4 -4 -17 -2 -29 4 -20 11 -20 12 8 19
19 5 42 3 68 -8 l40 -16 54 58 c30 32 54 62 54 66 0 5 5 9 10 9 6 0 10 6 10
14 0 7 7 26 15 42 17 34 30 128 19 145 -5 9 -9 8 -15 -7 -7 -17 -8 -16 -8 6
-2 44 -19 55 -59 37z m-162 -302 c-13 -14 -27 -25 -32 -25 -5 0 3 11 18 25 15
14 29 25 32 25 3 0 -5 -11 -18 -25z"/>
<path d="M3825 2310 c-4 -6 -1 -17 5 -25 9 -11 9 -19 2 -28 -7 -8 -7 -18 -1
-27 8 -13 10 -13 19 0 13 20 13 47 -1 55 -6 4 -8 13 -5 21 6 16 -10 19 -19 4z"/>
<path d="M3890 2283 c0 -18 -57 -124 -71 -134 -11 -7 9 -69 22 -69 5 0 9 5 9
12 0 6 3 8 7 5 12 -13 42 67 43 115 0 27 6 53 15 61 13 13 13 16 -1 21 -22 9
-24 8 -24 -11z"/>
<path d="M2375 2260 c3 -5 8 -10 11 -10 2 0 4 5 4 10 0 6 -5 10 -11 10 -5 0
-7 -4 -4 -10z"/>
<path d="M3161 2209 c-13 -10 -19 -19 -14 -19 13 0 49 27 43 33 -3 3 -16 -3
-29 -14z"/>
<path d="M3347 2203 c-26 -30 -13 -54 26 -46 39 7 47 13 19 13 -15 0 -22 7
-24 26 -3 26 -3 26 -21 7z"/>
<path d="M4118 2208 c-61 -8 -115 -31 -135 -57 -15 -20 -17 -58 -3 -66 8 -5 7
-12 -2 -23 -11 -15 -11 -15 3 -4 12 9 24 10 43 2 15 -5 57 -10 94 -9 56 1 62
2 37 10 -16 5 -38 6 -48 3 -25 -8 -120 18 -105 28 10 6 9 12 -5 22 -10 8 -14
17 -9 20 5 3 20 -8 32 -24 20 -27 25 -29 39 -16 19 16 117 47 125 39 10 -11
56 28 56 47 0 11 -1 20 -3 20 -1 0 -16 4 -32 8 -17 4 -56 5 -87 0z m-118 -102
c0 -3 -4 -8 -10 -11 -5 -3 -10 -1 -10 4 0 6 5 11 10 11 6 0 10 -2 10 -4z"/>
<path d="M3704 2182 c29 -31 29 -32 10 -47 -18 -13 -18 -14 6 -9 17 4 21 3 12
-4 -7 -5 -12 -13 -10 -18 1 -5 -4 -25 -11 -44 -8 -19 -13 -41 -12 -47 1 -7 -3
-13 -9 -13 -5 0 -10 4 -10 10 0 5 -25 -9 -55 -33 -30 -23 -55 -47 -55 -54 0
-6 17 -21 38 -33 20 -12 31 -16 25 -9 -21 22 -15 29 17 17 37 -12 67 4 99 55
28 46 53 129 42 140 -5 5 -27 -10 -51 -34 -32 -33 -38 -36 -23 -14 42 63 39
106 -10 144 l-32 25 29 -32z m36 -166 c0 -2 -8 -10 -17 -17 -16 -13 -17 -12
-4 4 13 16 21 21 21 13z"/>
<path d="M3525 2186 c-74 -25 -112 -45 -136 -72 -13 -14 -31 -34 -40 -43 -8
-10 -13 -23 -11 -30 2 -7 -5 -21 -17 -32 -12 -11 -21 -25 -21 -31 0 -6 9 -3
20 7 20 18 20 17 20 -57 0 -73 0 -75 -37 -108 -23 -20 -33 -35 -25 -37 6 -3
12 -17 12 -32 0 -68 50 -55 114 28 21 28 43 52 50 52 17 2 39 -1 56 -8 60 -24
147 -53 159 -53 10 0 11 4 3 13 -8 9 0 11 36 8 38 -3 42 -6 22 -11 -22 -5 -23
-7 -7 -13 10 -4 28 -7 39 -7 17 0 18 3 8 15 -11 13 -6 15 31 15 48 1 37 15
-17 24 -16 2 -49 8 -74 11 -25 4 -62 17 -84 29 -21 11 -53 29 -70 38 -22 12
-56 17 -115 18 l-84 0 21 23 c12 13 22 30 22 39 0 35 126 112 205 125 32 5 35
3 36 -18 1 -23 1 -22 15 6 l15 30 -6 -30 c-4 -20 -3 -27 4 -20 22 22 17 101
-6 113 -34 18 -98 21 -138 8z"/>
<path d="M3165 2175 c-16 -8 -24 -14 -17 -15 7 0 11 -4 8 -9 -10 -16 -9 -235
1 -238 6 -2 8 -14 6 -26 -3 -13 4 -31 17 -44 26 -29 14 -30 -16 -2 -12 11 -31
21 -43 22 -12 1 -19 6 -17 13 3 9 -3 8 -22 -2 -15 -8 -32 -14 -39 -14 -6 0
-48 -12 -91 -26 -96 -32 -158 -28 -196 12 -30 33 -64 25 -107 -24 -18 -20 -46
-46 -63 -59 -35 -26 -133 -76 -157 -80 -8 -1 -28 -9 -44 -17 -34 -18 -47 -12
-19 9 19 15 19 15 -1 8 -11 -4 -27 -15 -35 -25 -13 -16 -39 -20 -179 -27 -90
-5 -176 -7 -190 -5 -59 7 -204 16 -335 19 -76 3 -141 7 -144 10 -3 3 -15 5
-26 4 -18 -1 -18 -2 4 -8 21 -6 18 -8 -23 -14 -27 -4 -78 -23 -114 -43 -49
-27 -68 -33 -78 -24 -9 8 -15 8 -20 0 -4 -6 -3 -10 2 -9 20 3 25 -2 13 -16 -7
-8 -16 -12 -21 -9 -5 3 -6 -2 -3 -10 3 -9 2 -16 -4 -16 -24 0 -104 -162 -88
-178 3 -3 6 0 6 7 0 7 5 9 10 6 6 -4 8 -10 5 -15 -3 -5 0 -14 7 -22 14 -15 18
-28 21 -70 1 -15 6 -28 10 -28 5 0 6 -4 3 -9 -4 -5 -2 -20 3 -33 6 -14 10 -17
12 -8 6 48 5 60 -2 60 -19 0 54 103 111 157 19 18 43 33 55 33 11 0 33 7 50
16 16 8 40 12 53 9 13 -3 30 -1 37 5 9 8 15 8 20 0 3 -6 11 -7 17 -4 5 4 41 7
80 9 53 1 68 -1 64 -11 -3 -8 -1 -16 4 -19 6 -4 10 3 10 14 0 32 18 25 34 -14
8 -19 21 -35 28 -35 7 0 40 -14 72 -30 32 -17 61 -30 64 -30 4 0 -5 76 -14
115 -4 18 0 20 48 21 29 0 87 2 127 3 60 2 77 0 87 -14 11 -15 14 -15 45 1 38
19 159 32 159 17 0 -6 11 -8 25 -5 24 4 31 22 26 72 -2 16 133 81 173 82 11 1
26 4 31 7 6 3 3 -1 -7 -11 -37 -34 -15 -93 30 -81 25 6 31 -14 6 -24 -11 -4
-14 -13 -9 -30 4 -16 0 -30 -12 -41 -16 -16 -16 -16 -11 5 5 19 0 18 -38 -14
-49 -42 -47 -31 -45 -250 l2 -93 -28 0 c-24 0 -29 5 -31 26 -3 41 -14 49 -28
22 -19 -36 -137 -79 -190 -68 -38 7 -147 48 -131 49 4 1 -1 9 -10 19 -10 11
-21 17 -25 15 -4 -2 -5 2 -2 10 5 15 -22 44 -32 34 -15 -15 12 -66 58 -110 27
-27 47 -52 43 -55 -3 -4 -22 -5 -42 -3 -23 2 -33 -1 -28 -8 3 -6 -1 -14 -10
-17 -19 -8 -13 -48 10 -74 9 -10 11 -21 5 -30 -5 -8 -6 -18 -3 -23 3 -5 11
-34 18 -65 8 -31 17 -65 20 -75 5 -12 2 -17 -9 -17 -9 0 -16 -5 -16 -11 0 -6
7 -8 16 -5 14 5 16 1 11 -34 -3 -22 -1 -43 4 -46 5 -3 9 1 10 8 0 7 11 -18 23
-56 24 -72 45 -96 82 -96 16 0 23 -7 27 -27 3 -16 13 -62 22 -103 10 -41 23
-111 29 -155 9 -60 16 -81 28 -83 14 -3 17 6 17 53 0 31 5 63 12 71 6 8 14 50
16 94 2 65 8 86 29 117 14 21 29 40 33 43 4 3 15 34 26 70 21 73 33 93 51 86
12 -5 44 59 44 88 0 7 7 19 15 26 8 7 15 20 15 30 0 10 13 23 29 30 21 8 28
17 24 28 -4 13 -3 14 6 6 7 -6 19 -69 28 -140 9 -71 21 -132 26 -135 5 -4 7
-11 4 -16 -8 -12 14 -83 25 -83 10 0 21 26 44 105 23 78 50 133 118 235 31 46
56 93 56 105 0 28 -24 62 -34 47 -14 -22 -21 -12 -24 34 l-3 46 38 -2 c76 -4
82 -2 103 40 22 44 26 64 7 39 -24 -31 -81 -59 -123 -59 -81 0 -213 91 -189
130 4 6 3 16 -2 23 -13 19 -7 116 14 190 3 11 -1 17 -11 17 -9 0 -16 6 -16 13
0 6 -5 4 -11 -5 -15 -27 -37 -22 -54 12 -18 36 -19 46 -2 32 7 -6 18 -7 25 -3
8 4 24 6 37 4 17 -4 25 1 30 18 15 45 67 119 88 124 12 3 55 9 95 14 79 10
122 31 122 60 0 26 25 33 73 20 47 -12 77 -1 97 36 10 19 10 32 -3 68 -19 57
-12 133 13 140 11 3 20 17 23 33 2 16 5 -1 6 -38 0 -37 4 -69 9 -71 11 -8 2
256 -9 270 -6 6 -20 14 -32 16 -22 4 -22 4 -1 6 12 0 35 -13 52 -30 27 -28 30
-29 25 -9 -7 25 -58 60 -88 59 -11 0 -33 -7 -50 -14z m10 -164 c3 -5 2 -12 -3
-15 -5 -3 -9 1 -9 9 0 17 3 19 12 6z m15 -35 c0 -2 -7 -7 -16 -10 -8 -3 -12
-2 -9 4 6 10 25 14 25 6z m-483 -318 c-3 -7 -5 -2 -5 12 0 14 2 19 5 13 2 -7
2 -19 0 -25z m-1003 -46 c2 -4 1 -14 -3 -21 -6 -10 -10 -10 -16 -2 -4 8 -11 9
-18 3 -14 -11 -16 -11 -132 -15 -100 -4 -116 -9 -201 -63 -42 -26 -53 -31 -39
-15 11 13 58 41 105 64 76 37 95 42 180 48 52 3 100 6 107 7 6 1 14 -2 17 -6z
m435 -23 c2 -8 -2 -10 -13 -6 -10 4 -74 7 -142 7 -68 0 -124 3 -124 8 0 13
274 5 279 -9z m508 -171 c-3 -8 -6 -5 -6 6 -1 11 2 17 5 13 3 -3 4 -12 1 -19z
m-110 -145 c-2 -16 -4 -3 -4 27 0 30 2 43 4 28 2 -16 2 -40 0 -55z m176 62
c-3 -9 -8 -14 -10 -11 -3 3 -2 9 2 15 9 16 15 13 8 -4z m-4 -72 c0 -25 5 -51
10 -57 4 -6 4 -22 0 -36 l-7 -25 -1 26 c-1 14 -6 40 -12 58 -9 26 -6 81 5 81
1 0 4 -21 5 -47z m-132 -105 c1 -28 4 -62 7 -77 l6 -26 -15 25 c-8 14 -14 51
-15 84 0 71 14 66 17 -6z m18 2 c3 -5 1 -10 -4 -10 -6 0 -11 5 -11 10 0 6 2
10 4 10 3 0 8 -4 11 -10z m100 -124 c19 -24 35 -49 35 -57 0 -8 14 -32 31 -52
29 -35 31 -41 19 -65 -8 -15 -14 -30 -14 -34 -1 -3 -4 -10 -8 -14 -5 -4 -9
-23 -9 -43 -1 -20 -5 -49 -10 -66 -11 -41 0 96 12 155 8 36 7 47 -5 56 -9 6
-16 16 -16 22 0 18 -45 97 -68 120 -12 12 -22 32 -21 45 l0 22 10 -23 c5 -13
25 -43 44 -66z m-190 -65 c-8 -17 -19 -33 -25 -36 -5 -3 -1 10 11 29 25 43 36
48 14 7z m-327 -61 c15 0 22 -6 22 -21 0 -11 23 -44 50 -73 28 -29 50 -56 50
-60 0 -12 -63 50 -91 90 -18 26 -38 44 -56 47 -15 4 -41 18 -58 32 l-30 25 45
-20 c25 -11 55 -20 68 -20z m252 -5 c0 -1 -7 -8 -15 -15 -13 -10 -15 -9 -15 8
0 15 5 20 15 16 8 -4 15 -7 15 -9z m430 -29 c-6 -8 -19 -12 -27 -9 -14 6 -14
8 3 14 30 12 37 10 24 -5z m-465 -46 c-4 -12 -9 -19 -12 -17 -3 3 -2 15 2 27
4 12 9 19 12 17 3 -3 2 -15 -2 -27z m-15 -59 c0 -11 -7 -27 -16 -35 -8 -9 -15
-28 -13 -44 2 -31 -9 -62 -23 -62 -5 0 -6 6 -1 12 10 17 4 70 -10 87 -10 11
-8 13 11 7 20 -7 25 -3 35 23 13 36 17 38 17 12z m6 -99 c-18 -16 -18 -16 -6
6 6 13 14 21 18 18 3 -4 -2 -14 -12 -24z m-41 -73 c-9 -17 -19 -28 -22 -25 -6
6 23 56 32 56 3 0 -2 -14 -10 -31z"/>
<path d="M3420 2181 c0 -5 9 -7 20 -4 11 3 20 7 20 9 0 2 -9 4 -20 4 -11 0
-20 -4 -20 -9z"/>
<path d="M4285 2178 c-11 -6 -31 -22 -45 -36 -21 -22 -22 -24 -5 -17 11 4 44
10 73 13 44 4 50 7 41 19 -21 25 -43 32 -64 21z"/>
<path d="M2494 2153 c16 -18 34 -30 39 -26 6 3 7 1 3 -5 -9 -14 4 -63 14 -57
5 3 11 2 14 -3 8 -13 -27 -11 -44 2 -13 9 -13 9 -2 -6 8 -9 10 -23 6 -30 -4
-7 2 -4 14 6 14 12 22 14 22 7 0 -8 5 -7 16 4 17 17 12 71 -6 60 -6 -3 -10 0
-10 8 0 8 -7 20 -15 27 -12 10 -15 10 -15 -1 0 -7 -14 0 -32 17 l-33 29 29
-32z"/>
<path d="M1372 2159 c-45 -13 -118 -86 -130 -131 -17 -63 -2 -162 26 -172 9
-4 28 -13 42 -21 14 -8 45 -14 70 -14 46 1 46 3 -2 13 -41 9 -54 41 -28 68 11
12 20 25 20 28 0 14 51 30 68 21 9 -5 32 -6 50 -4 25 4 33 10 29 22 -2 9 3 23
11 31 13 12 14 9 9 -31 l-6 -44 16 44 c11 32 18 40 25 30 8 -13 6 62 -3 116
-8 42 -119 66 -197 44z m101 -36 c-7 -2 -19 -2 -25 0 -7 3 -2 5 12 5 14 0 19
-2 13 -5z"/>
<path d="M2251 2148 c-83 -14 -141 -70 -141 -136 0 -15 -6 -34 -12 -41 -11
-11 -9 -11 12 -1 23 12 24 12 12 -3 -11 -13 -11 -22 3 -51 9 -19 24 -41 33
-49 37 -33 152 -48 195 -26 37 19 66 50 60 65 -3 9 1 14 11 14 22 0 50 65 47
108 -1 18 2 32 8 32 6 0 11 -3 12 -7 2 -25 10 -58 15 -62 10 -10 -3 56 -17 85
-23 45 -63 68 -133 74 -35 3 -82 2 -105 -2z m166 -200 c-3 -7 -5 -2 -5 12 0
14 2 19 5 13 2 -7 2 -19 0 -25z"/>
<path d="M3100 2091 c0 -6 4 -13 10 -16 6 -3 7 1 4 9 -7 18 -14 21 -14 7z"/>
<path d="M1185 2057 l-29 -28 26 12 c15 6 30 18 33 27 8 22 3 20 -30 -11z"/>
<path d="M2050 2068 c0 -14 20 -58 27 -58 5 0 9 15 10 33 1 24 -1 27 -6 12 -8
-19 -8 -19 -19 0 -6 11 -12 17 -12 13z"/>
<path d="M3920 2049 c0 -5 9 -9 20 -9 11 0 20 2 20 4 0 2 -9 6 -20 9 -11 3
-20 1 -20 -4z"/>
<path d="M814 2024 c-18 -14 -18 -15 4 -4 12 6 22 13 22 15 0 8 -5 6 -26 -11z"/>
<path d="M4055 2030 c-4 -6 -25 -11 -48 -10 -23 0 -53 0 -66 0 -23 0 -41 -14
-41 -34 0 -5 6 -3 14 3 10 8 16 9 21 1 3 -5 1 -10 -6 -10 -25 0 6 -18 36 -22
17 -1 40 -8 51 -13 12 -6 46 -10 75 -8 80 6 103 6 118 2 7 -2 16 2 18 9 3 8
-1 10 -13 5 -11 -4 -15 -3 -10 5 3 6 -2 15 -11 21 -11 6 -13 11 -5 11 7 0 10
5 7 10 -3 6 -2 10 4 10 5 0 13 -4 16 -10 3 -5 1 -10 -5 -10 -6 0 -8 -5 -4 -11
5 -8 10 -6 16 5 9 16 11 16 29 0 18 -16 19 -16 19 3 0 38 -46 56 -107 43 -95
-20 -102 -20 -96 -5 6 17 -3 20 -12 5z"/>
<path d="M4339 2030 c-1 -3 -3 -18 -5 -35 -11 -102 -26 -121 -121 -155 -35
-12 -60 -27 -57 -32 7 -11 -76 -1 -114 13 -12 5 -46 26 -75 48 -31 23 -68 41
-92 44 -22 4 -33 4 -25 0 8 -3 23 -12 32 -20 9 -8 22 -12 27 -8 6 3 16 3 22
-1 7 -4 1 -11 -15 -18 l-28 -11 49 -47 c57 -53 93 -66 179 -62 83 3 185 50
208 96 9 18 24 44 34 58 13 19 14 22 2 15 -12 -7 -13 -6 -4 6 21 26 22 66 3
90 -10 13 -19 22 -20 19z m-299 -223 c13 -5 13 -6 -1 -6 -8 -1 -24 6 -35 15
-19 15 -19 15 1 6 11 -5 27 -12 35 -15z"/>
<path d="M1796 2006 c3 -9 11 -16 16 -16 13 0 5 23 -10 28 -7 2 -10 -2 -6 -12z"/>
<path d="M3093 1993 c-3 -10 -8 -22 -10 -28 -3 -5 3 -1 11 9 16 20 21 36 11
36 -3 0 -8 -8 -12 -17z"/>
<path d="M2040 1990 c0 -5 5 -10 11 -10 5 0 7 5 4 10 -3 6 -8 10 -11 10 -2 0
-4 -4 -4 -10z"/>
<path d="M448 1919 c3 -50 1 -69 -8 -69 -9 0 -9 -4 -2 -12 5 -7 10 -33 10 -58
0 -25 0 -52 1 -60 1 -17 106 -75 156 -86 17 -4 36 -12 44 -18 10 -8 13 -6 10
9 -3 13 -14 19 -36 21 -39 3 -168 64 -135 64 19 0 22 5 22 39 0 21 3 59 6 85
l7 46 51 -5 c80 -8 167 -22 214 -34 24 -6 47 -9 53 -6 5 4 9 -5 9 -19 0 -38
10 -55 28 -50 15 5 14 4 -1 -6 -9 -6 -22 -8 -29 -4 -8 5 -9 0 -5 -16 4 -15 -1
-32 -13 -48 -11 -13 -17 -29 -14 -34 4 -6 15 3 25 19 24 36 25 23 2 -14 -10
-16 -27 -28 -37 -28 -11 0 -21 -7 -24 -15 -4 -12 -2 -13 9 -2 20 18 33 15 18
-5 -8 -10 4 -2 27 17 48 41 96 120 101 167 5 48 -19 87 -79 127 -81 53 -95 56
-251 52 -78 -2 -147 0 -152 5 -7 5 -9 -15 -7 -62z m219 35 c-3 -3 -12 -4 -19
-1 -8 3 -5 6 6 6 11 1 17 -2 13 -5z"/>
<path d="M3520 1950 c-9 -6 -10 -10 -3 -10 6 0 15 5 18 10 8 12 4 12 -15 0z"/>
<path d="M3395 1930 c-3 -6 1 -7 9 -4 18 7 21 14 7 14 -6 0 -13 -4 -16 -10z"/>
<path d="M1140 1910 c0 -19 3 -21 12 -12 9 9 9 15 0 24 -9 9 -12 7 -12 -12z"/>
<path d="M3994 1906 c-17 -13 -18 -16 -3 -31 21 -21 49 -9 49 21 0 27 -17 31
-46 10z"/>
<path d="M1515 1880 c-10 -11 -14 -20 -9 -20 5 0 15 9 22 20 7 11 11 20 9 20
-2 0 -12 -9 -22 -20z"/>
<path d="M987 1879 c7 -7 15 -10 18 -7 3 3 -2 9 -12 12 -14 6 -15 5 -6 -5z"/>
<path d="M3660 1861 c0 -8 41 -23 47 -17 2 1 -8 8 -22 14 -14 6 -25 8 -25 3z"/>
<path d="M3875 1800 c3 -5 10 -10 16 -10 5 0 9 5 9 10 0 6 -7 10 -16 10 -8 0
-12 -4 -9 -10z"/>
<path d="M420 1769 c0 -5 5 -7 10 -4 6 3 10 8 10 11 0 2 -4 4 -10 4 -5 0 -10
-5 -10 -11z"/>
<path d="M1319 1619 c-13 -11 -18 -18 -11 -14 57 29 65 35 51 35 -9 0 -27 -9
-40 -21z"/>
<path d="M670 1620 c0 -12 34 -30 57 -30 13 0 10 5 -12 20 -33 22 -45 25 -45
10z"/>
<path d="M2965 1587 c-38 -18 -76 -36 -83 -40 -18 -12 -73 -137 -71 -162 4
-57 -2 -195 -9 -195 -4 0 -9 12 -10 27 -4 44 -13 41 -11 -4 2 -23 7 -39 12
-36 4 3 15 -3 22 -13 22 -29 18 -39 -7 -18 -20 17 -21 17 -9 1 18 -23 69 -50
80 -42 5 3 11 1 13 -5 4 -13 70 -17 75 -5 2 6 -6 11 -18 12 -30 3 -30 3 -14
58 8 26 15 66 15 87 0 28 5 40 18 44 9 3 24 9 32 14 8 5 30 17 48 26 37 19 40
29 13 46 -20 12 -17 39 9 87 11 22 11 22 -13 6 -28 -18 -40 -41 -30 -57 3 -7
1 -8 -6 -4 -7 5 -52 7 -101 7 -76 -1 -89 1 -84 14 4 9 20 15 43 16 86 2 145
10 158 21 19 16 10 20 -20 9 -17 -7 -28 -7 -32 -1 -4 6 0 10 9 10 19 0 76 48
76 65 0 28 -52 27 -97 -3 -13 -8 -23 -10 -23 -6 0 5 20 22 45 37 25 16 45 31
45 33 0 6 0 6 -75 -29z m-76 -67 c-13 -16 -24 -28 -27 -26 -6 6 29 56 39 56 5
0 0 -13 -12 -30z"/>
<path d="M1260 1590 c-8 -5 -10 -10 -5 -10 6 0 17 5 25 10 8 5 11 10 5 10 -5
0 -17 -5 -25 -10z"/>
<path d="M2839 1563 c-13 -16 -12 -17 4 -4 9 7 17 15 17 17 0 8 -8 3 -21 -13z"/>
<path d="M2483 1563 c-7 -3 -13 -15 -13 -28 0 -22 4 -23 42 -20 37 4 57 17 58
38 0 4 -6 8 -12 9 -36 4 -64 4 -75 1z"/>
<path d="M1178 1531 c-16 -18 -15 -20 2 -18 11 1 18 8 17 19 -1 10 -2 18 -2
18 0 0 -8 -9 -17 -19z"/>
<path d="M3490 1490 c8 -5 20 -10 25 -10 6 0 3 5 -5 10 -8 5 -19 10 -25 10 -5
0 -3 -5 5 -10z"/>
<path d="M3756 1483 c-6 -14 -5 -15 5 -6 7 7 10 15 7 18 -3 3 -9 -2 -12 -12z"/>
<path d="M3715 1480 c3 -5 8 -10 11 -10 2 0 4 5 4 10 0 6 -5 10 -11 10 -5 0
-7 -4 -4 -10z"/>
<path d="M3331 1463 c-33 -6 -72 -33 -65 -44 3 -5 -2 -6 -10 -3 -10 4 -23 -8
-40 -35 -14 -22 -26 -43 -26 -46 0 -3 46 -4 103 -3 77 1 90 3 52 7 l-50 6 55
21 c30 12 74 25 98 29 39 6 44 5 49 -14 3 -12 11 -21 18 -21 8 0 20 -3 29 -6
21 -8 21 19 0 51 -16 25 -42 36 -28 13 4 -8 3 -10 -2 -5 -5 5 -9 14 -9 20 0
26 -102 43 -174 30z m-6 -27 c-16 -7 -32 -11 -35 -9 -8 7 24 23 45 22 15 0 13
-3 -10 -13z"/>
<path d="M3671 1454 c0 -11 3 -14 6 -6 3 7 2 16 -1 19 -3 4 -6 -2 -5 -13z"/>
<path d="M1116 1452 c-3 -5 1 -9 9 -9 8 0 15 4 15 9 0 4 -4 8 -9 8 -6 0 -12
-4 -15 -8z"/>
<path d="M1075 1439 c-4 -6 -5 -12 -2 -15 2 -3 7 2 10 11 7 17 1 20 -8 4z"/>
<path d="M2290 1431 c-135 -43 -187 -148 -139 -279 8 -25 14 -30 20 -20 7 10
9 10 9 0 0 -7 5 -10 10 -7 6 3 10 -1 10 -9 0 -17 32 -29 73 -28 57 2 155 89
141 126 -4 11 -2 16 6 14 7 -2 17 8 21 22 4 14 8 18 8 10 1 -12 4 -11 12 3 6
10 8 32 6 50 -12 77 -19 93 -45 105 -38 16 -102 23 -132 13z m-102 -267 c-3
-14 -5 -12 -10 9 -3 19 -2 25 4 19 6 -6 8 -18 6 -28z"/>
<path d="M3590 1405 c7 -8 9 -15 5 -15 -4 0 -3 -6 2 -12 6 -7 13 -25 17 -40 5
-24 3 -27 -32 -33 -20 -3 -117 -4 -214 -1 l-178 5 0 -28 c0 -36 26 -110 46
-132 17 -19 74 -43 74 -31 0 4 -10 12 -22 17 -13 6 -24 20 -26 33 -2 12 -8 20
-13 17 -5 -3 -6 1 -3 10 4 9 13 13 23 10 28 -9 84 -16 136 -16 39 -1 53 3 67
21 10 13 16 25 14 27 -2 3 -53 5 -113 6 -80 2 -107 5 -105 15 1 6 -6 12 -15
13 -10 0 -4 5 12 10 17 6 94 7 181 3 83 -4 160 -3 172 0 27 9 30 51 6 84 -8
12 -12 27 -8 34 4 7 3 8 -4 4 -7 -4 -12 -2 -12 3 0 6 -5 11 -11 11 -8 0 -8 -5
1 -15z"/>
<path d="M1030 1335 c-6 -19 -18 -35 -26 -35 -17 0 -19 -36 -1 -43 9 -4 9 -8
-2 -15 -10 -8 -7 -15 19 -33 17 -13 35 -24 40 -24 5 0 11 -3 15 -7 9 -8 55 12
55 24 0 5 -9 4 -20 -2 -15 -8 -30 -8 -56 0 -32 11 -34 14 -29 43 10 59 14 82
21 105 10 36 -3 25 -16 -13z"/>
<path d="M2100 1340 c-6 -11 -8 -20 -6 -20 3 0 10 9 16 20 6 11 8 20 6 20 -3
0 -10 -9 -16 -20z"/>
<path d="M2791 1334 c0 -11 3 -14 6 -6 3 7 2 16 -1 19 -3 4 -6 -2 -5 -13z"/>
<path d="M3123 1322 c-3 -12 -8 -22 -12 -22 -3 0 -7 -15 -8 -33 -2 -24 0 -28
8 -17 7 11 8 5 4 -21 -10 -52 35 -131 102 -180 29 -22 60 -39 71 -39 10 0 23
-5 29 -11 8 -8 40 -10 95 -7 64 4 95 11 136 31 28 15 52 31 53 35 0 4 2 22 3
40 2 23 15 45 46 77 24 25 41 45 36 45 -4 0 -38 -32 -75 -71 l-68 -72 -75 -5
c-95 -6 -217 6 -197 19 10 7 6 8 -11 4 -22 -5 -34 2 -72 43 -52 57 -75 123
-58 168 6 15 8 29 5 32 -3 4 -8 -4 -12 -16z"/>
<path d="M1097 1303 c-13 -12 -7 -22 8 -17 11 5 14 1 9 -12 -5 -18 -5 -18 6
-1 16 24 -4 50 -23 30z"/>
<path d="M1595 1286 c-31 -15 -67 -44 -94 -77 -25 -30 -36 -46 -25 -36 33 28
40 20 10 -12 l-27 -28 25 -7 c14 -3 26 -11 26 -16 0 -6 9 -6 26 0 14 6 50 10
81 10 47 0 56 -3 60 -20 5 -17 8 -18 21 -8 13 10 14 10 8 0 -4 -7 2 -25 15
-43 l22 -31 16 28 c8 16 16 41 17 57 1 30 14 51 14 24 0 -16 21 -45 63 -90 18
-18 18 -20 -20 -64 -76 -90 -200 -143 -336 -143 -103 0 -271 57 -342 116 -50
43 -99 121 -117 189 -7 27 -25 63 -40 79 l-28 30 0 -42 c0 -23 5 -42 10 -42 6
0 10 -6 9 -12 -1 -7 1 -25 4 -40 4 -16 9 -39 12 -53 3 -14 10 -23 15 -20 6 4
7 -1 3 -11 -5 -13 -3 -15 7 -9 9 5 11 4 6 -4 -4 -6 4 -32 18 -57 14 -26 23
-51 20 -56 -3 -5 3 -12 15 -15 12 -3 21 -9 21 -13 0 -23 221 -127 310 -145 51
-11 266 -14 308 -4 27 6 41 4 52 -6 33 -30 85 -132 121 -236 30 -90 39 -106
49 -94 22 27 48 427 26 405 -7 -7 -17 -3 -32 11 l-22 21 -18 -27 c-14 -22 -15
-32 -6 -63 l11 -37 -20 28 c-17 22 -29 27 -67 28 l-47 1 45 9 c27 5 53 18 64
31 10 13 29 37 43 53 l25 30 -6 -26 c-5 -25 13 -56 26 -44 2 2 2 44 0 92 -5
96 -5 93 4 205 l6 78 -26 -2 c-14 -1 -26 -7 -26 -13 0 -5 -11 14 -25 43 -13
28 -27 52 -30 52 -3 0 1 -13 10 -30 8 -16 15 -32 15 -35 0 -3 0 -6 1 -7 6 -18
7 -61 3 -90 -5 -31 -10 -38 -28 -38 -27 0 -71 44 -61 60 5 8 11 8 21 -1 23
-19 17 20 -11 70 -14 23 -25 48 -25 55 -1 15 -103 66 -132 66 -13 0 -45 -11
-73 -24z m5 -71 c-25 -7 -53 -16 -62 -20 -10 -4 -18 -4 -18 -1 0 12 64 35 95
35 26 -1 24 -2 -15 -14z"/>
<path d="M1907 1249 c7 -7 15 -10 18 -7 3 3 -2 9 -12 12 -14 6 -15 5 -6 -5z"/>
<path d="M1478 1223 c-29 -34 -30 -48 -2 -21 15 15 26 30 23 33 -3 3 -13 -3
-21 -12z"/>
<path d="M1940 1207 c14 -8 27 -12 30 -10 7 6 -23 23 -40 23 -8 0 -4 -6 10
-13z"/>
<path d="M3003 1113 c-24 -25 -17 -31 11 -10 11 8 17 18 15 23 -2 5 -14 -1
-26 -13z"/>
<path d="M1250 943 c8 -3 24 -13 34 -22 11 -9 16 -10 12 -3 -4 7 -2 12 6 12 9
0 9 3 -2 10 -8 5 -26 9 -40 9 -15 0 -19 -3 -10 -6z"/>
<path d="M1995 890 c-10 -16 14 -60 32 -60 8 0 11 5 8 10 -3 6 -12 22 -20 36
-8 17 -15 22 -20 14z"/>
<path d="M1610 880 c-13 -9 -13 -10 0 -9 8 0 24 4 35 9 l20 9 -20 0 c-11 0
-27 -4 -35 -9z"/>
<path d="M1558 863 c6 -2 18 -2 25 0 6 3 1 5 -13 5 -14 0 -19 -2 -12 -5z"/>
<path d="M2241 444 c0 -11 3 -14 6 -6 3 7 2 16 -1 19 -3 4 -6 -2 -5 -13z"/>
</g>
</svg>
