<svg xmlns="http://www.w3.org/2000/svg"  viewBox="0 0 64 64" width="600px" height="600px" baseProfile="basic"><path fill="#c2cde7" d="M39.964,31.539C44.19,29.195,56.576,30.31,58,17c-2.574,4.919-5.84,5.443-11.532,5.313	c0.622-0.677,1.241-1.453,1.832-2.37c2.799-4.341,5.864-5.745,5.864-5.745s-1.533-1.829-4.798-1.829	c0.457-4.113-0.965-7.19-5.372-9.368c1.326,4.42,2.998,7.226-0.561,10.704l0.043-0.155C38.168,9.455,32,9.097,32,9.097	s-6.168,0.358-11.476,4.452l0.043,0.155C17.008,10.226,18.68,7.42,20.006,3c-4.407,2.179-5.829,5.255-5.372,9.368	c-3.265,0-4.798,1.829-4.798,1.829s3.064,1.404,5.864,5.745c0.591,0.917,1.21,1.693,1.832,2.37C11.84,22.443,8.574,21.919,6,17	c1.424,13.31,14.19,12.195,18.036,14.539c1.127,1.438,3.296,2.698,3.574,6.289c0.216,2.785,0.144,4.181-1.413,4.181	s-2.537-0.831-4.296,1.043c-2.707-0.771-2.499-4.713,0.96-8.194c0,0-7.117,2.564-6.092,8.08c0.6,3.226,5.985,4.24,8.76,2.068	c0.683,0.445,1.196,0.747,1.982,0.823c2.792,0.269,3.965-1.712,4.488-4.846c0.523,3.134,1.696,5.115,4.488,4.846	c0.787-0.076,1.299-0.378,1.982-0.823c2.775,2.172,8.16,1.158,8.76-2.068c1.025-5.516-6.092-8.08-6.092-8.08	c3.459,3.481,3.667,7.423,0.96,8.194c-1.758-1.874-2.739-1.043-4.296-1.043s-1.628-1.396-1.413-4.181	C36.667,34.237,38.836,32.977,39.964,31.539z"/><path fill="#efc88e" d="M26.78,38.43c-3.918-1.703-6.781-6.149-7.328-6.014c-0.195,0.271,0.238,1.146,0.595,1.762	c1.227,2.113,3.083,4.455,3.519,5.987c0.613,2.151,1.715,14.665,3.224,18.993c0.496-3.197-0.325-17.17-0.325-17.17	c-0.063-0.914,0.424-2.281,0.626-2.889C27.18,38.827,27.043,38.545,26.78,38.43z"/><path fill="#efc88e" d="M44.549,32.417c-0.547-0.136-3.41,4.31-7.328,6.014c-0.263,0.114-0.4,0.397-0.31,0.669	c0.201,0.608,0.689,1.975,0.626,2.889c0,0-0.821,13.973-0.325,17.17c1.508-4.328,2.611-16.842,3.224-18.993	c0.436-1.532,2.292-3.874,3.519-5.987C44.311,33.563,44.744,32.688,44.549,32.417z"/><path fill="#efc88e" d="M32,40.984c-0.826,1.619-1.689,4.237-2.597,4.527c0,0,0.168,4.155,0.847,10.489	c0.75,7,1.743,7.999,1.744,8c0.001-0.001,1.006-1,1.756-8c0.679-6.335,0.846-10.489,0.846-10.489	C33.689,45.221,32.826,42.603,32,40.984z"/><path fill="#f9e3ae" d="M29.403,45.511c0,0,0.168,4.155,0.847,10.489c0.75,7,1.743,7.999,1.744,8	c0,0,0.004-0.008,0.006-0.013V40.984C31.174,42.603,30.311,45.221,29.403,45.511z"/><path fill="#8d6c9f" d="M39.791,33.212c0.282-0.289,0.545-0.568,0.791-0.859c0.906-0.466,2.264-0.804,3.84-1.188	c5.344-1.3,13.418-3.266,14.572-14.059c0.052-0.478-0.244-0.924-0.704-1.063c-0.457-0.141-0.953,0.068-1.176,0.493	c-2.025,3.869-4.418,4.707-8.553,4.786c0.195-0.271,0.39-0.543,0.58-0.838c2.583-4.007,5.415-5.366,5.439-5.378	c0.283-0.13,0.49-0.385,0.559-0.689c0.068-0.304-0.009-0.623-0.209-0.862c-0.067-0.08-1.525-1.778-4.491-2.125	c0.161-4.252-1.767-7.232-6.002-9.326c-0.356-0.176-0.784-0.126-1.089,0.133c-0.304,0.257-0.427,0.67-0.313,1.051	c0.187,0.623,0.381,1.214,0.565,1.779c0.981,2.993,1.624,4.972-0.188,7.205c-5.317-3.77-11.102-4.158-11.356-4.172	c-0.037-0.002-0.078-0.002-0.115,0c-0.254,0.014-6.039,0.402-11.356,4.172c-1.811-2.233-1.169-4.211-0.188-7.205	c0.185-0.565,0.379-1.156,0.565-1.779c0.114-0.381-0.009-0.794-0.313-1.051c-0.306-0.259-0.732-0.309-1.089-0.133	c-4.235,2.094-6.163,5.074-6.002,9.326c-2.966,0.347-4.424,2.045-4.491,2.125c-0.199,0.238-0.274,0.556-0.208,0.859	c0.067,0.303,0.273,0.559,0.554,0.69c0.028,0.014,2.86,1.373,5.443,5.38c0.19,0.295,0.385,0.568,0.58,0.839	c-4.142-0.078-6.528-0.917-8.553-4.787c-0.223-0.425-0.72-0.634-1.176-0.493c-0.46,0.14-0.756,0.586-0.704,1.063	c1.146,10.717,9.248,12.71,14.609,14.029c1.581,0.389,2.949,0.728,3.782,1.193c0.251,0.3,0.522,0.586,0.811,0.883	c1.09,1.118,2.218,2.274,2.404,4.693c0.058,0.737,0.209,2.695-0.117,3.048c-0.025,0.027-0.128,0.056-0.299,0.056	c-0.31,0-0.605-0.042-0.918-0.088c-0.962-0.138-2.138-0.296-3.577,0.944c-0.284-0.192-0.481-0.465-0.579-0.841	c-0.309-1.182,0.328-3.328,2.447-5.46c0.33-0.332,0.386-0.848,0.135-1.242c-0.253-0.396-0.743-0.562-1.183-0.403	c-2.738,0.986-7.67,4.179-6.736,9.203c0.13,0.699,0.448,1.337,0.907,1.896c-0.55,3.892,1.924,5.889,3.216,6.856	c1.592,1.191,3.929,1.502,4.993,1.409c0.53-0.047,1.072-0.192,1.57-0.474c0.498-0.277,0.931-0.735,1.167-1.262	c0.243-0.528,0.293-1.087,0.255-1.598c-0.03-0.511-0.179-1.072-0.525-1.531c-0.345-0.463-0.932-0.732-1.431-0.847	c-0.432-0.099-0.581,0.05-0.627,0.174s0.125,0.256,0.31,0.361c0.367,0.209,0.723,0.455,0.98,0.977	c0.769,1.764-0.807,2.64-1.773,2.674c-0.721-0.012-1.472-0.264-2.067-0.666c-0.614-0.509-1.735-1.65-1.589-3.95	c0.232,0.02,0.463,0.03,0.694,0.03c1.332,0,2.619-0.348,3.681-0.983c0.545,0.316,1.111,0.563,1.868,0.636	c0.205,0.021,0.402,0.029,0.593,0.029c2.093,0,3.29-1.152,3.991-2.461c0.765,1.427,2.108,2.667,4.585,2.432	c0.757-0.073,1.322-0.32,1.867-0.636c1.062,0.634,2.349,0.983,3.681,0.983c0.244,0,0.49-0.012,0.735-0.035	c0.148,2.303-0.974,3.445-1.589,3.954c-0.595,0.402-1.346,0.654-2.067,0.666c-0.966-0.034-2.542-0.909-1.773-2.674	c0.256-0.522,0.613-0.767,0.98-0.977c0.185-0.105,0.356-0.237,0.31-0.361s-0.195-0.273-0.627-0.174	c-0.5,0.114-1.086,0.384-1.431,0.847c-0.347,0.459-0.495,1.019-0.525,1.531c-0.038,0.511,0.011,1.07,0.255,1.598	c0.236,0.527,0.668,0.985,1.167,1.262c0.498,0.282,1.04,0.427,1.57,0.474c1.064,0.092,3.401-0.218,4.993-1.409	c1.297-0.97,3.783-2.978,3.21-6.898c0.441-0.549,0.746-1.173,0.873-1.854c0.934-5.024-3.998-8.217-6.736-9.203	c-0.44-0.158-0.931,0.008-1.183,0.403c-0.251,0.395-0.195,0.91,0.135,1.242c2.119,2.132,2.756,4.278,2.447,5.46	c-0.098,0.376-0.295,0.649-0.579,0.841c-1.439-1.241-2.615-1.082-3.577-0.944c-0.313,0.046-0.608,0.088-0.918,0.088	c-0.171,0-0.273-0.028-0.299-0.056c-0.326-0.353-0.175-2.311-0.117-3.048C37.573,35.486,38.701,34.33,39.791,33.212z M55.978,21.191	c-2.3,5.663-7.609,6.955-12.028,8.03c-0.871,0.212-1.681,0.411-2.418,0.631c0.08-0.824,0.009-1.782-0.319-2.808	c1.307-0.44,3.501-1.454,5.693-3.725C50.521,23.382,53.526,23.172,55.978,21.191z M45.771,5.272	c2.153,1.711,2.943,3.905,2.601,6.985c-0.031,0.282,0.06,0.565,0.249,0.777s0.461,0.333,0.745,0.333c1.373,0,2.378,0.363,3.04,0.729	c-1.237,0.87-3.149,2.517-4.946,5.303c-2.656,4.121-5.83,5.446-7.137,5.836c-1.005-1.911-0.729-5.246,0.07-8.014	C47.647,12.761,47.079,9.365,45.771,5.272z M22.464,29.821c-0.721-0.219-1.515-0.417-2.371-0.628	c-4.427-1.089-9.741-2.396-12.055-7.987c2.449,1.967,5.451,2.177,9.055,2.114c2.192,2.271,4.387,3.285,5.693,3.725	C22.464,28.057,22.39,29.005,22.464,29.821z M23.677,25.236c-1.311-0.392-4.481-1.718-7.137-5.836	c-1.797-2.786-3.708-4.433-4.946-5.303c0.664-0.366,1.667-0.729,3.04-0.729c0.284,0,0.556-0.121,0.745-0.333s0.28-0.495,0.249-0.777	c-0.343-3.08,0.447-5.274,2.601-6.985c-1.308,4.093-1.876,7.488,5.378,11.95C24.405,19.99,24.682,23.324,23.677,25.236z M19.787,44.8c-0.664-0.251-1.813-0.85-2.034-2.044c-0.365-1.963,0.559-3.512,1.744-4.646c-0.458,1.215-0.577,2.394-0.309,3.418	c0.31,1.188,1.122,2.03,2.275,2.416c0.021,0.01,0.038,0.025,0.059,0.033c0.817,0.334,1.454,0.651,1.978,0.945	C22.344,45.264,20.967,45.245,19.787,44.8z M42.478,43.978c0.021-0.009,0.039-0.023,0.059-0.033	c1.153-0.386,1.965-1.228,2.275-2.416c0.269-1.024,0.149-2.203-0.309-3.418c1.186,1.134,2.109,2.683,1.744,4.646	c-0.222,1.194-1.37,1.793-2.034,2.044c-1.179,0.445-2.556,0.463-3.713,0.122C41.024,44.629,41.661,44.312,42.478,43.978z M36.036,42.312c0.428,0.463,1.022,0.697,1.767,0.697c0.453,0,0.852-0.058,1.202-0.107c0.436-0.063,0.769-0.11,1.103-0.037	c-0.882,0.452-1.505,0.861-2.007,1.189c-0.782,0.514-1.123,0.725-1.708,0.781c-1.399,0.135-2.78-0.26-3.406-4.015	c-0.08-0.482-0.497-0.836-0.986-0.836s-0.906,0.354-0.986,0.836c-0.626,3.757-2.017,4.154-3.405,4.015	c-0.586-0.057-0.927-0.268-1.709-0.781c-0.502-0.328-1.125-0.737-2.007-1.189c0.334-0.072,0.668-0.025,1.103,0.037	c0.351,0.05,0.749,0.107,1.202,0.107c0.744,0,1.339-0.234,1.767-0.697c0.854-0.923,0.806-2.472,0.644-4.561	c-0.243-3.142-1.817-4.756-2.967-5.936c-0.307-0.314-0.597-0.611-0.817-0.894c-0.174-0.22-0.866-1.906,0.188-4.068	c1.903-2.598,1.464-7.148,0.398-10.584c-0.073-0.234-0.229-0.435-0.44-0.561c-1.208-0.725-2.168-1.389-2.935-2.019	c4.493-3.054,9.374-3.542,9.966-3.591c0.592,0.049,5.473,0.537,9.966,3.591c-0.767,0.63-1.727,1.294-2.935,2.019	c-0.211,0.126-0.367,0.326-0.44,0.561c-1.066,3.436-1.505,7.985,0.398,10.584c1.054,2.161,0.362,3.847,0.188,4.068	c-0.221,0.282-0.511,0.579-0.817,0.894c-1.149,1.18-2.724,2.794-2.967,5.936C35.23,39.84,35.183,41.389,36.036,42.312z M36.74,30.579c1.124-0.397,0.47-2.839-0.463-3.637c-2.698,1.16-3.042,2.314-2.909,3.637C33.831,30.513,35.616,30.976,36.74,30.579z M27.722,26.943c-0.933,0.798-1.587,3.24-0.463,3.637c1.124,0.397,2.909-0.066,3.372,0C30.764,29.257,30.421,28.103,27.722,26.943z M31,14.607h2c0.553,0,1-0.447,1-1s-0.447-1-1-1h-2c-0.553,0-1,0.447-1,1S30.447,14.607,31,14.607z M34,22.385c0-0.553-0.447-1-1-1	h-2c-0.553,0-1,0.447-1,1s0.447,1,1,1h2C33.553,23.385,34,22.938,34,22.385z M31,18.996h2c0.553,0,1-0.447,1-1s-0.447-1-1-1h-2	c-0.553,0-1,0.447-1,1S30.447,18.996,31,18.996z M46.182,18.047c0.213,0,0.427-0.067,0.609-0.207	c0.045-0.035,1.114-0.867,1.826-2.192c0.262-0.487,0.079-1.093-0.407-1.354c-0.489-0.262-1.093-0.079-1.354,0.407	c-0.503,0.937-1.28,1.551-1.285,1.554c-0.438,0.337-0.519,0.965-0.183,1.403C45.585,17.913,45.882,18.047,46.182,18.047z M17.145,14.7c-0.262-0.486-0.863-0.67-1.354-0.407c-0.486,0.262-0.669,0.867-0.407,1.354c0.712,1.325,1.781,2.157,1.826,2.192	c0.182,0.139,0.396,0.207,0.607,0.207c0.299,0,0.594-0.134,0.791-0.389c0.338-0.435,0.259-1.063-0.175-1.401	C18.425,16.251,17.647,15.637,17.145,14.7z"/><path fill="#efc88e" d="M23.721,40.873c0.572-0.083,1.091-0.018,1.558,0.048c0.313,0.046,0.608,0.088,0.918,0.088	c0.171,0,0.273-0.028,0.299-0.056c0.272-0.294,0.212-1.699,0.151-2.587c-3.849-1.745-6.655-6.083-7.196-5.949	c-0.195,0.271,0.238,1.146,0.595,1.762c1.227,2.113,3.083,4.455,3.519,5.987C23.614,40.336,23.667,40.579,23.721,40.873z"/><path fill="#efc88e" d="M44.549,32.417c-0.541-0.134-3.347,4.204-7.196,5.949c-0.061,0.888-0.121,2.293,0.151,2.587	c0.025,0.027,0.128,0.056,0.299,0.056c0.31,0,0.605-0.042,0.918-0.088c0.466-0.067,0.986-0.132,1.558-0.049	c0.055-0.293,0.107-0.536,0.156-0.707c0.436-1.532,2.292-3.874,3.519-5.987C44.311,33.563,44.744,32.688,44.549,32.417z"/><path fill="#f9e3ae" d="M26.666,39.975l0.026,0.006c0.019-0.524-0.013-1.14-0.046-1.616	c-3.849-1.745-6.655-6.083-7.196-5.949C21.213,35.233,23.407,38.321,26.666,39.975z"/><path fill="#f9e3ae" d="M37.353,38.366c-0.033,0.475-0.064,1.092-0.046,1.616l0.026-0.006	c3.259-1.654,5.453-4.742,7.215-7.559C44.008,32.283,41.202,36.621,37.353,38.366z"/></svg>